<svg width="78" height="78" viewBox="0 0 78 78" fill="none" xmlns="http://www.w3.org/2000/svg">
<path d="M31.3334 56.25V21.75L54.3334 39L31.3334 56.25ZM39 0.666687C33.966 0.666687 28.9813 1.65821 24.3305 3.58464C19.6797 5.51107 15.4538 8.33468 11.8943 11.8943C4.70537 19.0832 0.666687 28.8334 0.666687 39C0.666687 49.1666 4.70537 58.9169 11.8943 66.1058C15.4538 69.6654 19.6797 72.489 24.3305 74.4154C28.9813 76.3418 33.966 77.3334 39 77.3334C49.1666 77.3334 58.9169 73.2947 66.1058 66.1058C73.2947 58.9169 77.3334 49.1666 77.3334 39C77.3334 33.966 76.3418 28.9813 74.4154 24.3305C72.489 19.6797 69.6654 15.4538 66.1058 11.8943C62.5462 8.33468 58.3204 5.51107 53.6696 3.58464C49.0187 1.65821 44.034 0.666687 39 0.666687Z" fill="#F7921E"/>
</svg>
